<svg width="169" height="211" viewBox="0 0 169 211" fill="none" xmlns="http://www.w3.org/2000/svg">
<g clip-path="url(#clip0_1_40)">
<path d="M35.1869 0L39.2317 21.3915L52.7451 28.3085L84.4997 50.0633L116.256 28.3085L129.769 21.3915L133.814 0H84.5009H35.1869ZM40.4664 27.9166L52.042 89.1342L84.4997 139.196L116.959 89.1341L128.534 27.9166L117.427 33.4544L84.5009 59.3024L51.5736 33.4545L40.4664 27.9166Z" fill="black"/>
<path d="M71.1293 123.403L63.8762 150.701H84.4997H105.124L97.8713 123.403L84.5009 145.195L71.1293 123.403Z" fill="black"/>
<path d="M37.6977 40.1334L20.6858 31.1953L43.1345 89.3811L57.6399 103.19L68.2059 120.067L66.4781 125.966L40.8485 103.232L37.5368 89.131L23.5701 77.6201L0 7.18074L34.0541 22.5154L37.6977 40.1334Z" fill="black"/>
<path d="M53.229 155.441L50.2031 169.72H84.4997H118.798L115.772 155.441H84.5009H53.229Z" fill="black"/>
<path d="M44.2884 171.275V179.376H84.4997H124.712V171.275H84.5009H44.2884Z" fill="black"/>
<path d="M36.611 182.108L32.1228 211H84.4997H136.878L132.39 182.108H84.5009H36.611Z" fill="black"/>
<path d="M131.303 40.1334L148.315 31.1953L125.866 89.3811L111.361 103.19L100.795 120.067L102.523 125.966L128.152 103.232L131.464 89.131L145.431 77.6201L169.001 7.18074L134.947 22.5154L131.303 40.1334Z" fill="black"/>
</g>
<defs>
<clipPath id="clip0_1_40">
<rect width="169" height="211" fill="white"/>
</clipPath>
</defs>
</svg>
